<svg t="1729824204882" class="icon" viewBox="0 0 1024 1024" version="1.1" xmlns="http://www.w3.org/2000/svg" p-id="3702" width="200" height="200"><path d="M91.546996 23.272727m93.090909 0l646.981819 0q93.090909 0 93.090909 93.090909l0 791.272728q0 93.090909-93.090909 93.090909l-646.981819 0q-93.090909 0-93.090909-93.090909l0-791.272728q0-93.090909 93.090909-93.090909Z" fill="#00C5BA" p-id="3703"></path><path d="M831.619724 1024H184.637905A116.363636 116.363636 0 0 1 68.274269 907.636364v-791.272728A116.363636 116.363636 0 0 1 184.637905 0h646.981819a116.363636 116.363636 0 0 1 116.363636 116.363636v791.272728a116.363636 116.363636 0 0 1-116.363636 116.363636zM184.637905 46.545455A69.818182 69.818182 0 0 0 114.819724 116.363636v791.272728A69.818182 69.818182 0 0 0 184.637905 977.454545h646.981819a69.818182 69.818182 0 0 0 69.818181-69.818181v-791.272728A69.818182 69.818182 0 0 0 831.619724 46.545455z" p-id="3704"></path><path d="M738.06336 581.818182a147.083636 147.083636 0 0 0-79.127273-41.425455 178.269091 178.269091 0 0 0 4.654546-27.461818l-36.770909-5.12a111.709091 111.709091 0 0 1-6.516364 28.392727h-12.101818a227.141818 227.141818 0 0 0-52.130909 6.981819 505.018182 505.018182 0 0 1 3.258182-51.665455 1447.098182 1447.098182 0 0 0 154.996363-18.152727l-7.447273-33.512728a1360.989091 1360.989091 0 0 1-144.290909 17.221819l9.774546-68.421819-34.909091-5.12c-4.189091 19.549091-7.912727 46.545455-11.636364 76.334546H443.896087l6.050909 34.443636h73.541819c0 12.101818 0 32.581818-3.258182 62.370909a182.923636 182.923636 0 0 0-75.869091 57.716364 131.258182 131.258182 0 0 0-29.789091 80.989091 68.887273 68.887273 0 0 0 18.152727 52.130909 62.836364 62.836364 0 0 0 46.545455 17.687273 128.930909 128.930909 0 0 0 80.523636-35.374546 98.210909 98.210909 0 0 0 12.101818 18.618182l29.789091-20.48a142.894545 142.894545 0 0 1-14.894545-25.6 366.312727 366.312727 0 0 0 63.767272-128 114.967273 114.967273 0 0 1 60.974546 31.650909 80.989091 80.989091 0 0 1 24.203636 57.250909 72.610909 72.610909 0 0 1-31.650909 60.043637 151.738182 151.738182 0 0 1-88.901818 25.6l15.825455 35.84a167.563636 167.563636 0 0 0 106.123636-40.029091 108.916364 108.916364 0 0 0 34.909091-80.058182 110.778182 110.778182 0 0 0-33.978182-82.850909z m-232.727273 139.636363a93.090909 93.090909 0 0 1-29.323636 7.912728 26.065455 26.065455 0 0 1-16.290909-7.447273 39.563636 39.563636 0 0 1-7.912727-28.392727 97.28 97.28 0 0 1 19.083636-55.389091 135.912727 135.912727 0 0 1 50.734545-46.545455 396.101818 396.101818 0 0 0 20.945455 101.469091 102.4 102.4 0 0 1-36.770909 27.927273z m65.163637-59.578181a317.44 317.44 0 0 1-13.032728-81.454546 202.007273 202.007273 0 0 1 54.458182-8.378182 343.04 343.04 0 0 1-40.96 89.367273z" fill="#FEE9EB" p-id="3705"></path><path d="M281.452451 207.592727V1000.727273" fill="#00C5BA" p-id="3706"></path><path d="M258.179724 207.592727h46.545454V1000.727273h-46.545454z" p-id="3707"></path><path d="M179.052451 99.141818m58.647273 0l540.858181 0q58.647273 0 58.647273 58.647273l0 0.465454q0 58.647273-58.647273 58.647273l-540.858181 0q-58.647273 0-58.647273-58.647273l0-0.465454q0-58.647273 58.647273-58.647273Z" fill="#FFFFFF" p-id="3708"></path><path d="M779.02336 240.174545H237.699724a82.385455 82.385455 0 0 1 0-164.305454h541.323636a82.385455 82.385455 0 0 1 0 164.305454zM237.699724 122.414545a35.84 35.84 0 0 0 0 71.68h541.323636a35.84 35.84 0 0 0 0-71.68z" p-id="3709"></path></svg>